<!DOCTYPE svg PUBLIC "-//W3C//DTD SVG 1.1//EN" "http://www.w3.org/Graphics/SVG/1.1/DTD/svg11.dtd">
<!-- Uploaded to: SVG Repo, www.svgrepo.com, Transformed by: SVG Repo Mixer Tools -->
<svg fill="#a4a4a4" height="800px" width="800px" version="1.1" id="Layer_1" xmlns="http://www.w3.org/2000/svg" xmlns:xlink="http://www.w3.org/1999/xlink" viewBox="0 0 512 512" xml:space="preserve" stroke="#a4a4a4">
<g id="SVGRepo_bgCarrier" stroke-width="0"/>
<g id="SVGRepo_tracerCarrier" stroke-linecap="round" stroke-linejoin="round"/>
<g id="SVGRepo_iconCarrier"> <g> <g> <path d="M496,152H16c-8.832,0-16,7.168-16,16c0,8.832,7.168,16,16,16h480c8.832,0,16-7.168,16-16C512,159.168,504.832,152,496,152 z"/> </g> </g> <g> <g> <path d="M320,328H192c-8.832,0-16,7.168-16,16c0,8.832,7.168,16,16,16h128c8.832,0,16-7.168,16-16 C336,335.168,328.832,328,320,328z"/> </g> </g> <g> <g> <path d="M208,152c-8.832,0-16,7.168-16,16v176c0,8.832,7.168,16,16,16c8.832,0,16-7.168,16-16V168 C224,159.168,216.832,152,208,152z"/> </g> </g> <g> <g> <path d="M304,152c-8.832,0-16,7.168-16,16v176c0,8.832,7.168,16,16,16c8.832,0,16-7.168,16-16V168 C320,159.168,312.832,152,304,152z"/> </g> </g> </g>
</svg>