<!DOCTYPE svg PUBLIC "-//W3C//DTD SVG 1.1//EN" "http://www.w3.org/Graphics/SVG/1.1/DTD/svg11.dtd">
<!-- Uploaded to: SVG Repo, www.svgrepo.com, Transformed by: SVG Repo Mixer Tools -->
<svg width="800px" height="800px" viewBox="0 0 32 32" version="1.1" xml:space="preserve" xmlns="http://www.w3.org/2000/svg" xmlns:xlink="http://www.w3.org/1999/xlink" fill="#4c4d4e">
<g id="SVGRepo_bgCarrier" stroke-width="0"/>
<g id="SVGRepo_tracerCarrier" stroke-linecap="round" stroke-linejoin="round"/>
<g id="SVGRepo_iconCarrier"> <style type="text/css"> .st0{stroke:#4c4d4e;stroke-width:2;stroke-linecap:round;stroke-linejoin:round;stroke-miterlimit:10;} </style> <g id="Musik_icon"> <path d="M28.76,3.24C28.25,1.91,26.96,1,25.5,1C23.57,1,22,2.57,22,4.5c0,0.58,0.16,1.15,0.43,1.65l-2.86,2.86 C14.82,7.4,7.06,10.8,3.93,13.93c-3.9,3.9-3.9,10.24,0,14.14C5.88,30.02,8.44,31,11,31s5.12-0.98,7.07-2.92 c3.13-3.13,6.53-10.89,4.91-15.64l2.86-2.86C26.35,9.84,26.92,10,27.5,10c1.93,0,3.5-1.57,3.5-3.5C31,5.04,30.09,3.75,28.76,3.24z"/> </g> </g>
</svg>