<!DOCTYPE svg PUBLIC "-//W3C//DTD SVG 1.1//EN" "http://www.w3.org/Graphics/SVG/1.1/DTD/svg11.dtd">
<!-- Uploaded to: SVG Repo, www.svgrepo.com, Transformed by: SVG Repo Mixer Tools -->
<svg fill="#4c4d4e" height="800px" width="800px" version="1.1" id="Layer_1" xmlns="http://www.w3.org/2000/svg" xmlns:xlink="http://www.w3.org/1999/xlink" viewBox="0 0 512 512" xml:space="preserve">
<g id="SVGRepo_bgCarrier" stroke-width="0"/>
<g id="SVGRepo_tracerCarrier" stroke-linecap="round" stroke-linejoin="round"/>
<g id="SVGRepo_iconCarrier"> <g> <g> <path d="M488.727,181.631H342.035l149.318-87.158c11.1-6.479,14.846-20.73,8.367-31.831s-20.736-14.842-31.831-8.367 L249.702,181.631H23.273C10.42,181.631,0,192.051,0,204.904c0,35.817,7.405,69.931,20.747,100.914 c0.403,1.131,0.867,2.231,1.434,3.272c21.079,47.118,55.993,86.739,99.547,113.681c-3.348,4.031-5.364,9.208-5.364,14.857 c0,12.853,10.42,23.273,23.273,23.273h232.727c12.853,0,23.273-10.42,23.273-23.273c0-5.651-2.015-10.828-5.364-14.857 c43.594-26.964,78.53-66.633,99.603-113.81c0.524-0.976,0.959-2.005,1.341-3.06C504.579,274.897,512,240.753,512,204.904 C512,192.051,501.58,181.631,488.727,181.631z M256,414.358c-72.467,0-136.453-36.997-174.072-93.091h348.146 C392.453,377.361,328.467,414.358,256,414.358z M453.483,274.722H58.517c-5.257-14.825-8.893-30.41-10.687-46.544h208.05v0 c0.047,0,0.095,0.005,0.141,0.005c0.047,0,0.095-0.005,0.141-0.005H464.17C462.378,244.312,458.74,259.897,453.483,274.722z"/> </g> </g> </g>
</svg>