<!DOCTYPE svg PUBLIC "-//W3C//DTD SVG 1.1//EN" "http://www.w3.org/Graphics/SVG/1.1/DTD/svg11.dtd">
<!-- Uploaded to: SVG Repo, www.svgrepo.com, Transformed by: SVG Repo Mixer Tools -->
<svg fill="#a4a4a4" version="1.1" id="Capa_1" xmlns="http://www.w3.org/2000/svg" xmlns:xlink="http://www.w3.org/1999/xlink" viewBox="0 0 44.996 44.996" xml:space="preserve" width="800px" height="800px" stroke="#a4a4a4">
<g id="SVGRepo_bgCarrier" stroke-width="0"/>
<g id="SVGRepo_tracerCarrier" stroke-linecap="round" stroke-linejoin="round"/>
<g id="SVGRepo_iconCarrier"> <g> <g id="b111_chinese"> <path d="M44.996,21.444c0,7.186-8.191,13.008-18.295,13.008S8.406,28.629,8.406,21.444"/> <rect x="8.464" y="16.083" width="36.531" height="4.832"/> <rect x="22.025" y="34.108" width="9.408" height="1.795"/> <rect x="3.477" y="9.096" width="24.655" height="1.207"/> <rect x="0" y="9.093" width="24.659" height="1.207"/> <path d="M25.964,20.36c-0.032,0-0.066-0.004-0.102-0.008c-0.616-0.059-1.017-0.637-1.283-1.184 c-0.476,0.455-1.262,0.631-2.322,0.535l0.086-0.91c0.633,0.057,1.442,0.033,1.721-0.436c0.04-0.064,0.074-0.15,0.102-0.258 c-0.172-0.572-0.222-1.047-0.193-1.449c-0.278-0.811-0.852-1.957-1.939-3.572l-0.082-0.125c-0.482-0.721-0.55-1.938,0.078-2.424 c0.715-0.557,1.776-0.037,3.166,1.523c1.584,1.773,1.135,2.531,0.385,3.338c-0.293,0.316-0.591,0.633-0.679,1.154 c0.16,0.527,0.239,1.031,0.2,1.48c0.047,0.146,0.106,0.303,0.176,0.463c0.371,0.883,0.625,0.949,0.67,0.955 c0.41,0.004,1.258-1.254,1.947-2.295c0.021-0.037,0.047-0.068,0.07-0.104c-0.292-0.314-0.553-0.652-0.773-0.998 c-0.65,1.08-0.731,2.621-0.731,2.641l-0.913-0.041c0.004-0.102,0.111-2.203,1.173-3.508c-0.155-0.383-0.251-0.77-0.284-1.143 c-0.113-1.346,0.68-2.303,2.132-2.551c1.38-0.227,2.372,0.307,3.148,1.053c0.475-0.398,0.981-0.754,1.528-1.053 c2.41-1.303,3.5-1.588,4.014-1.043c0.635,0.666-0.055,1.889-1.675,4.586c-0.304,0.504-0.775,1.166-1.442,1.193 c-0.016,0-0.029,0-0.042,0c-0.726,0-1.237-0.721-1.826-1.555c-0.201-0.277-0.404-0.568-0.625-0.846 c-0.274,0.273-0.543,0.561-0.797,0.857c1.884,0.777,4.147,2.154,3.938,3.398c-0.181,1.088-1.905,1.088-2.474,1.088 c-1.339,0-2.638-0.586-3.674-1.445C27.576,19.282,26.855,20.36,25.964,20.36z M29.144,16.921c0.867,0.75,1.974,1.291,3.17,1.291 c1.25,0,1.564-0.262,1.576-0.326c0.064-0.383-1.297-1.609-3.639-2.506C29.853,15.891,29.486,16.419,29.144,16.921z M27.83,15.333 c0.179,0.314,0.398,0.629,0.658,0.932c0.262-0.387,0.541-0.781,0.844-1.184c-0.584-0.123-1.062-0.043-1.471,0.229 C27.851,15.319,27.841,15.323,27.83,15.333z M22.662,11.237c-0.035,0-0.061,0.004-0.07,0.016 c-0.157,0.121-0.155,0.781,0.119,1.195l0.079,0.119c0.561,0.832,1.179,1.811,1.638,2.777c0.155-0.227,0.331-0.412,0.484-0.578 c0.518-0.559,0.758-0.814-0.396-2.104C23.435,11.456,22.865,11.237,22.662,11.237z M32.33,13.174 c0.252,0.312,0.479,0.631,0.689,0.928c0.367,0.52,0.824,1.164,1.079,1.164c0.026-0.002,0.259-0.016,0.689-0.732 c0.803-1.334,1.885-3.139,1.78-3.545c-0.008,0.049-0.515-0.021-2.89,1.262C33.197,12.514,32.749,12.825,32.33,13.174z M29.183,12.309c-0.148,0-0.303,0.012-0.465,0.039c-0.986,0.17-1.445,0.697-1.371,1.572c0.014,0.18,0.055,0.367,0.109,0.561 c0.701-0.426,1.536-0.484,2.49-0.184c0.34-0.406,0.7-0.809,1.088-1.186C30.529,12.639,29.933,12.309,29.183,12.309z"/> </g> <g id="Capa_1_265_"> </g> </g> </g>
</svg>