<!DOCTYPE svg PUBLIC "-//W3C//DTD SVG 1.1//EN" "http://www.w3.org/Graphics/SVG/1.1/DTD/svg11.dtd">
<!-- Uploaded to: SVG Repo, www.svgrepo.com, Transformed by: SVG Repo Mixer Tools -->
<svg fill="#a4a4a4" version="1.1" id="Capa_1" xmlns="http://www.w3.org/2000/svg" xmlns:xlink="http://www.w3.org/1999/xlink" width="800px" height="800px" viewBox="0 0 45.001 45.001" xml:space="preserve" stroke="#a4a4a4">
<g id="SVGRepo_bgCarrier" stroke-width="0"/>
<g id="SVGRepo_tracerCarrier" stroke-linecap="round" stroke-linejoin="round"/>
<g id="SVGRepo_iconCarrier"> <g> <path d="M39.234,4.814l-1.356-2.121l-7.572,4.848c-0.031-0.001-0.061-0.008-0.092-0.008h-7.051C22.568,3.285,18.921,0,14.512,0 C9.688,0,5.767,3.924,5.767,8.747c0,4.492,3.4,8.197,7.762,8.688v25.676c0,1.044,0.847,1.89,1.89,1.89h14.797 c1.043,0,1.89-0.846,1.89-1.89V9.423c0-0.013-0.004-0.025-0.004-0.039L39.234,4.814z M14.938,1.782V7.6 c-0.326,0.086-0.623,0.251-0.854,0.483V1.781c-3.515,0.215-6.321,3.021-6.535,6.536h6.343c-0.181,0.247-0.297,0.54-0.339,0.857 H7.549c0.202,3.324,2.731,5.986,5.979,6.448v0.82c-3.819-0.486-6.783-3.749-6.783-7.698c0-4.281,3.484-7.765,7.767-7.765 c3.869,0,7.077,2.846,7.662,6.553h-0.819C20.799,4.397,18.187,1.979,14.938,1.782z M15.47,22.488V9.684h13.447l-5.638,12.804H15.47 z M30.161,22.488h-4.129l4.129-9.376V22.488z"/> </g> </g>
</svg>